# xmcd
#
# Track frame offsets:
#	150
#	16240
#	29449
#	43389
#	59320
#	72720
#	90529
#	105426
#	122208
#	136524
#	149457
#	165004
#	177723
#	192889
#	210060
#	227196
#	240437
#	255571
#
# Disc length: 3647 seconds
#
# Revision: 1
# Processed by: cddbd v1.5.2PL0 Copyright (c) Steve Scherf et al.
# Submitted via: audiograbber 1.82.02
#
DISCID=f20e3d12
DTITLE=Various Artist - Country Radio - September 2018
DYEAR=2018
DGENRE=Country
TTITLE0=CJ Solar - American Girls
TTITLE1=PJ Woolam (Ft. Dockside) - Recipe For Love
TTITLE2=Ashley McBryde - Radioland
TTITLE3=Stephen Martines - Sounds Like Whiskey
TTITLE4=Uncle Kracker - Floatin'
TTITLE5=Dierks Bentley (Ft. Brothers Osbourne) - Burning Man
TTITLE6=Alyssa Lynn - High Heels or Camo
TTITLE7=Randy Houser - What Whiskey Does (PO Clean Edit)
TTITLE8=David Lee Murphy - I Won't Be Sorry
TTITLE9=Jon Pardi - Night Shift
TTITLE10=Eric Church - Desperate Man (PO Clean Edit)
TTITLE11=Chance McKinney - Take It Back
TTITLE12=Ddendyl Hoyt - Where I Come From
TTITLE13=Morgan Wallen - Whiskey Glasses
TTITLE14=Blake Shelton - Turnin' Me On
TTITLE15=Chase Rice - Eyes On You
TTITLE16=Ashley Sisters - Reckless
TTITLE17=Jessica Meuse - Thank God It Didn't Work
EXTD=
EXTT0=
EXTT1=
EXTT2=
EXTT3=
EXTT4=
EXTT5=
EXTT6=
EXTT7=
EXTT8=
EXTT9=
EXTT10=
EXTT11=
EXTT12=
EXTT13=
EXTT14=
EXTT15=
EXTT16=
EXTT17=
PLAYORDER=
